#!OML:ASF F:\VICON\USERDATA\INSTALL\rory3\rory3.ASF
:FULLY-SPECIFIED
:DEGREES
108
root 0.27151686869643243 18.35255901167337 29.701663429548717 3.215107523679764 4.503477131180131 -3.6804083326118344
lfemur -39.33665220462926 -4.020859142372755 -15.96407510115078
ltibia 34.92987029091173
lfoot -3.7262236809657927 -4.695647039717944
ltoes -27.434950492293954
rfemur 8.37991569039178 2.4693573633771955 30.767075524311053
rtibia 31.37562343904452
rfoot 19.062779221458285 -8.950902001175585
rtoes -4.6897136576440746
lowerback nan 0.5338084687198363 3.11418477882223
upperback -2.81598121585499 4.2375093553098875 -0.5909037262940091
thorax -9.35889441743531 1.5278905214952498 -3.3731766395140834
lowerneck -22.37073038917368 -5.035781098200616 -1.5937101679370165
upperneck 15.629580240729807 -7.545028367791627 3.351587532560308
head 8.729194413898927 -3.1644356214889586 0.2425487825316564
lclavicle 4.9865415677071425e-14 -1.034153933212987e-14
lhumerus -72.60708939372319 1.2733515152206216 91.25651166951681
lradius 112.87997131545787
lwrist 31.773482937449636
lhand -24.085129136698296 1.7137263531919984
lfingers nan
lthumb 2.2719842720253776 31.196105261704098
rclavicle 5.637687137148933e-14 -5.959361711567887e-15
rhumerus -40.769866078380446 16.015505223613822 -96.15313929414543
rradius 120.84594899333194
rwrist -12.147945332053531
rhand -18.494153106598425 nan
rfingers nan
rthumb 8.078016702137548 10.589819569433683
109
root 0.2723570570936665 18.36858597776376 30.397243789539615 3.237173676119218 4.151099708468625 -4.126032217915297
lfemur -38.027959875968136 -4.8802054717502745 -15.272749813297654
ltibia 31.49054644425399
lfoot -3.277460428109111 -4.375857008159933
ltoes -27.16865716740532
rfemur 7.6807263620456006 3.194650348257187 31.497987469989383
rtibia 34.04185133658497
rfoot 17.166863910976247 -10.536401256648851
rtoes -3.359018353627997
lowerback nan 0.5812871365837973 3.1745379295152314
upperback -2.8160855618601146 4.422479657129176 -0.3316310748700573
thorax -9.521033359575352 1.631926415789277 -3.3399026936718474
lowerneck -22.33286384295822 -4.973652923403326 -1.7011937019358192
upperneck 15.576435124001272 -7.463144473545897 3.3246751334082107
head 8.687736334943798 -3.087321544467137 0.2744180429086999
lclavicle -4.357377267857818e-15 -1.115508395620287e-14
lhumerus -71.8401647667434 1.4890261040662498 91.05085231475198
lradius 113.8672416953616
lwrist 31.448799633923887
lhand -24.105399611090874 1.558761063915127
lfingers nan
lthumb 2.2770934687962643 31.071602300624463
rclavicle 2.63801274464617e-15 -6.6115667078277745e-15
rhumerus -41.07674300690442 16.752972586614618 -96.61009211910206
rradius 120.62219894569333
rwrist -12.36340094457612
rhand -18.3626573680902 nan
rfingers nan
rthumb 8.221842255616773 10.551998202141776
110
root 0.2578341827506737 18.376549699638346 30.72074769827171 3.2124394138185983 3.9469553051864654 -4.672466820703351
lfemur -36.66276252487178 -5.369586624191958 -14.69525584557378
ltibia 28.49370185090323
lfoot -3.116881304725549 -3.414041829483106
ltoes -29.08258203637214
rfemur 6.761982828872302 3.6987978299235165 32.39999478011035
rtibia 37.30378968565762
rfoot 15.473123597680189 -12.91668769948397
rtoes -0.6021551079750163
lowerback nan 0.5785126437549546 3.386310183248655
upperback -2.7396728871839624 4.582053736278496 -0.0837335846138767
thorax -9.467570615703139 1.7073488411192081 -3.359303757647127
lowerneck -21.877213500153093 -5.012264690273629 -1.9134456212690907
upperneck 14.910504258213134 -7.497172193328545 3.419840575128526
head 8.476468768796334 -3.043957312699714 0.3629922057976604
lclavicle 1.6465955688213273e-14 6.780149206640809e-15
lhumerus -70.90129112360066 1.4545876717896284 90.85758206647073
lradius 114.78143852949196
lwrist 31.24425103774756
lhand -23.473262700005794 -1.439925846989506
lfingers nan
lthumb 2.8571220719495125 28.05373086345699
rclavicle 2.3327048194410527e-14 1.1551892523252166e-14
rhumerus -41.43583487975749 17.244831634940617 -97.20538562635747
rradius 120.37403170484468
rwrist -11.50727989212298
rhand -18.095662458611006 nan
rfingers nan
rthumb 8.496487684436868 10.482564729489784
111
root 0.22492699498810725 18.377022862175423 31.09677595487178 3.1663290340625183 3.504306830242892 -5.346102295383787
lfemur -35.3284338581178 -4.917612335374182 -14.345026178833754
ltibia 26.127132928881363
lfoot -2.8017569346409026 -2.6952423642749785
ltoes -33.57027812676721
rfemur 5.656353600767197 4.269694256745914 33.34223133332095
rtibia 40.99070540238312
rfoot 13.840191618793682 -15.811913874974891
rtoes 0.8972157322661518
lowerback nan 0.6768366339715488 3.695808703985926
upperback -2.6755765363031756 4.899585940884679 0.08899771256408373
thorax -9.48698608932277 1.8396475350042445 -3.5308857986929842
lowerneck -21.87291773934902 -5.0835042870116816 -2.049113778107067
upperneck 14.63068354884518 -7.623076298963776 3.6086268189575685
head 8.427764960017473 -3.041238211156566 0.4518072286969458
lclavicle -3.0596767137715763e-14 -1.1581339540246999e-14
lhumerus -70.03723651378843 1.2014542820792098 90.71217377658515
lradius 115.76174084359474
lwrist 31.061908669456734
lhand -23.150218101154437 -2.99418780529256
lfingers nan
lthumb 3.2049446527292895 26.532470143258507
rclavicle -2.412245993493444e-14 -6.993632439576346e-15
rhumerus -41.882859424057024 17.4997210809548 -97.98593192683198
rradius 120.06592917115043
rwrist -10.46857958307664
rhand -18.15288202098089 nan
rfingers nan
rthumb 8.466543931978094 10.583672957537628
112
root 0.19214496824722505 18.369304809576406 31.58825964774166 3.0719422032717265 2.877941959591158 -5.440402624221422
lfemur -33.904961653113176 -4.161222958928463 -14.653234748884367
ltibia 24.419446783493903
lfoot -2.5105018051442007 -2.3283918810169872
ltoes -35.875339763943145
rfemur 4.585942902772214 4.814623084013222 33.59396132169073
rtibia 45.02412602526947
rfoot 12.215262056354332 -18.01856203421527
rtoes 1.7689258166661006
lowerback nan 0.8727753957362202 3.39821800397155
upperback -2.583090527350184 5.20162638503225 0.06602166690449307
thorax -9.580870199211496 1.9921090365731344 -3.505207143107169
lowerneck -21.881944440227553 -5.128378949148205 -1.9935232066395547
upperneck 14.129913961168821 -7.718536932335183 3.683146775951277
head 8.32544875311956 -3.044490584962257 0.4730543811306575
lclavicle 2.3908161812550022e-14 4.201339415318265e-15
lhumerus -69.15213257682392 0.9043771925433592 90.68900012397306
lradius 116.6331721319935
lwrist 30.775018830281667
lhand -23.24503843617851 -2.6221089345005266
lfingers nan
lthumb 3.14816824118377 26.93496354707169
rclavicle 3.0507997677881733e-14 9.182108255477496e-15
rhumerus -42.386313752213916 17.700106072542503 -98.71813753600398
rradius 119.61925254986109
rwrist -9.858747716195156
rhand -18.49145385742734 nan
rfingers nan
rthumb 8.167097681607148 10.884720866150762
113
root 0.1692284537057297 18.32124879930677 32.17442541768675 2.6788528269029923 2.595651479841246 -4.832951489013057
lfemur -32.52108636616485 -3.535539937137104 -15.723616943029484
ltibia 23.362694356520834
lfoot -2.271697198210248 -2.6972875187940213
ltoes -35.50054234054093
rfemur 3.720360938163111 4.941836257641248 33.170165750932235
rtibia 49.287282015571684
rfoot 10.754843923474596 -19.509553840601427
rtoes 1.2128409696795477
lowerback nan 0.926856025270868 2.513812902245914
upperback -2.2647328332481127 5.174461177769801 -0.07940643830365413
thorax -9.519009405978144 2.033540175686057 -3.1924875120076806
lowerneck -22.204845320774464 -5.083089486811761 -1.8759946349259062
upperneck 13.63666639029545 -7.668287788032368 3.6823515407766125
head 8.255250858032856 -3.011623027992095 0.4565052562741756
lclavicle -5.661463195702425e-14 -5.0664168000817136e-14
lhumerus -68.04408696516101 0.7255946216292557 90.74167925207864
lradius 117.47934614717651
lwrist 30.72547044477997
lhand -23.24277219507833 -2.113248416168391
lfingers nan
lthumb 3.056573332788771 27.40864574263882
rclavicle -4.986958349594696e-14 -4.6060352774859174e-14
rhumerus -42.77445835427224 17.932735112464066 -99.29609571624626
rradius 119.11299034116942
rwrist -9.875864800207907
rhand -18.73989261810671 nan
rfingers nan
rthumb 7.952719315746741 10.75072195056743
